name D:\Gebruiker\Documents\~school~\WTK\thesis\model\3dpredictsim_Lars\Results\Test_Lars\Test1_bCst_no_v133.mot
datacolumns 126
datarows 4
range 1.54946647 1.58045580
endheader
time	pelvis_tilt	pelvis_list	pelvis_rotation	pelvis_tx	pelvis_ty	pelvis_tz	hip_flexion_l	hip_adduction_l	hip_rotation_l	hip_flexion_r	hip_adduction_r	hip_rotation_r	knee_angle_l	knee_angle_r	ankle_angle_l	ankle_angle_r	subtalar_angle_l	subtalar_angle_r	mtp_angle_l	mtp_angle_r	lumbar_extension	lumbar_bending	lumbar_rotation	arm_flex_l	arm_add_l	arm_rot_l	arm_flex_r	arm_add_r	arm_rot_r	elbow_flex_l	elbow_flex_r	pro_sup_l	pro_sup_r	glut_med1_l/activation	glut_med2_l/activation	glut_med3_l/activation	glut_min1_l/activation	glut_min2_l/activation	glut_min3_l/activation	semimem_l/activation	semiten_l/activation	bifemlh_l/activation	bifemsh_l/activation	sar_l/activation	add_long_l/activation	add_brev_l/activation	add_mag1_l/activation	add_mag2_l/activation	add_mag3_l/activation	tfl_l/activation	pect_l/activation	grac_l/activation	glut_max1_l/activation	glut_max2_l/activation	glut_max3_l/activation	iliacus_l/activation	psoas_l/activation	quad_fem_l/activation	gem_l/activation	peri_l/activation	rect_fem_l/activation	vas_med_l/activation	vas_int_l/activation	vas_lat_l/activation	med_gas_l/activation	lat_gas_l/activation	soleus_l/activation	tib_post_l/activation	flex_dig_l/activation	flex_hal_l/activation	tib_ant_l/activation	per_brev_l/activation	per_long_l/activation	per_tert_l/activation	ext_dig_l/activation	ext_hal_l/activation	ercspn_l/activation	intobl_l/activation	extobl_l/activation	glut_med1_r/activation	glut_med2_r/activation	glut_med3_r/activation	glut_min1_r/activation	glut_min2_r/activation	glut_min3_r/activation	semimem_r/activation	semiten_r/activation	bifemlh_r/activation	bifemsh_r/activation	sar_r/activation	add_long_r/activation	add_brev_r/activation	add_mag1_r/activation	add_mag2_r/activation	add_mag3_r/activation	tfl_r/activation	pect_r/activation	grac_r/activation	glut_max1_r/activation	glut_max2_r/activation	glut_max3_r/activation	iliacus_r/activation	psoas_r/activation	quad_fem_r/activation	gem_r/activation	peri_r/activation	rect_fem_r/activation	vas_med_r/activation	vas_int_r/activation	vas_lat_r/activation	med_gas_r/activation	lat_gas_r/activation	soleus_r/activation	tib_post_r/activation	flex_dig_r/activation	flex_hal_r/activation	tib_ant_r/activation	per_brev_r/activation	per_long_r/activation	per_tert_r/activation	ext_dig_r/activation	ext_hal_r/activation	ercspn_r/activation	intobl_r/activation	extobl_r/activation	
          1.54946647	         -2.92897893	          2.17337775	         -5.18796103	          2.06079041	          0.85773677	          0.00237639	         31.89914472	          3.07157498	         -2.00005245	        -18.81230333	         -1.72809808	          7.05492363	        -14.55912793	         -5.81005332	          8.04938095	          0.50488557	         -4.82803280	          8.96121816	         -0.13959705	         22.48719011	         -2.34484242	         -0.62827727	          1.79692697	         -9.24676835	        -13.54526298	          7.22444761	          9.42532715	        -13.45319747	         17.48369469	         13.65767009	         34.04411881	         86.51662706	         86.51662706	          0.13327369	          0.05000114	          0.05860651	          0.05000081	          0.05000106	          0.05000264	          0.05860919	          0.05861372	          0.27798228	          0.05000359	          0.05003437	          0.08437529	          0.13324036	          0.22473895	          0.16721337	          0.12660358	          0.05003380	          0.05033224	          0.05865580	          0.06501744	          0.06869927	          0.11907822	          0.05000150	          0.05000170	          0.26477145	          0.05099697	          0.05000514	          0.05000275	          0.09414237	          0.09772392	          0.08237682	          0.05860792	          0.05808114	          0.05860808	          0.05000051	          0.05000821	          0.05011191	          0.51075683	          0.41863129	          0.24100632	          0.29443184	          0.55094815	          0.33209261	          0.08199337	          0.10268755	          0.11739481	          0.28456635	          0.10173101	          0.07869963	          0.32728980	          0.20943822	          0.11064231	          0.05000842	          0.05000149	          0.05000105	          0.08052596	          0.11064930	          0.05159406	          0.05000290	          0.05000268	          0.05000666	          0.05000350	          0.35589000	          0.05003332	          0.05000704	          0.05004379	          0.05002458	          0.05001240	          0.41381320	          0.69311478	          0.05000303	          0.05000705	          0.05951892	          0.23611913	          0.05004629	          0.05001996	          0.05001944	          0.32635908	          0.44924541	          0.30490895	          0.28272045	          0.30299334	          0.40434505	          0.05000021	          0.07335863	          0.17249282	          0.05000146	          0.05000039	          0.05000112	          0.05000016	          0.05000015	          0.05000020	
          1.55979625	         -2.92285476	          2.28998366	         -5.49397826	          2.07700783	          0.85664743	          0.00219761	         31.32926804	          3.42757563	         -1.79232602	        -18.67750838	         -2.05530304	          6.84812036	        -14.44047872	         -7.75227251	          7.47112511	         -0.28507018	         -5.28260656	          9.90150169	         -0.11699333	         23.51134661	         -2.15922284	         -0.86513050	          1.86315088	        -10.20867154	        -13.53625887	          7.09794960	          9.30136600	        -13.46149952	         17.67805532	         13.54348249	         35.06441651	         86.51662706	         86.51662706	          0.11369965	          0.05860809	          0.05000101	          0.05861880	          0.05860950	          0.05001742	          0.05000124	          0.05000614	          0.24416303	          0.05000607	          0.05000612	          0.07198726	          0.11367225	          0.22735277	          0.19078526	          0.12193074	          0.05000187	          0.05001841	          0.05004413	          0.05859870	          0.05860988	          0.11820527	          0.05001094	          0.05003108	          0.54345597	          0.13772463	          0.08508995	          0.06869923	          0.19144135	          0.19486957	          0.16832332	          0.05000005	          0.05000010	          0.05000002	          0.05000091	          0.05861123	          0.05000446	          0.56155875	          0.35716304	          0.24645458	          0.48796980	          0.59794177	          0.28610077	          0.06995058	          0.08760526	          0.10015235	          0.24277104	          0.08678930	          0.06714080	          0.27921974	          0.17867709	          0.09439188	          0.05003139	          0.05000331	          0.05000395	          0.06869879	          0.09439878	          0.13528182	          0.06529278	          0.06301196	          0.05007177	          0.05011103	          0.30361993	          0.07587864	          0.05001867	          0.05002154	          0.05001394	          0.05001264	          0.35303422	          0.59737848	          0.05000231	          0.05005143	          0.05860824	          0.20143932	          0.06836902	          0.17822702	          0.15882071	          0.27842470	          0.38326208	          0.26012516	          0.24953645	          0.25849797	          0.34496181	          0.05000021	          0.06258457	          0.16520714	          0.05000094	          0.05000028	          0.05000099	          0.05000026	          0.06869827	          0.05000023	
          1.57012603	         -2.91260566	          2.40152022	         -5.77705448	          2.09350224	          0.85556135	          0.00202665	         30.64689187	          3.73982724	         -1.52477867	        -18.46323139	         -2.37065011	          6.63227695	        -14.89094530	         -9.83205255	          6.78788631	         -1.23199441	         -5.75477995	         10.79473041	         -0.15742240	         24.38033338	         -1.95255708	         -1.10300150	          1.91998942	        -11.18001675	        -13.52801568	          6.99952757	          9.09212983	        -13.46974107	         17.80368979	         13.47056864	         36.04867447	         86.51662706	         86.51662706	          0.28862990	          0.05000065	          0.33418424	          0.05000944	          0.05000177	          0.20690519	          0.07790950	          0.05000099	          0.21266573	          0.05000043	          0.05000352	          0.08057988	          0.26104079	          0.19398982	          0.16293310	          0.14820392	          0.05000396	          0.06005501	          0.11559578	          0.05000095	          0.05000252	          0.13570769	          0.05477010	          0.05000626	          0.46363567	          0.11749694	          0.16561568	          0.05860907	          0.16332378	          0.16624854	          0.14360113	          0.06837563	          0.06869679	          0.06282972	          0.05860839	          0.05000379	          0.05870932	          0.47907917	          0.37256344	          0.21025695	          0.41629941	          0.57972404	          0.24407957	          0.05967664	          0.09565459	          0.08544239	          0.30427759	          0.07404217	          0.05727977	          0.23821089	          0.15243406	          0.08052820	          0.05001735	          0.05000538	          0.05000590	          0.05860886	          0.08053518	          0.16125525	          0.16403355	          0.05861685	          0.05861290	          0.05860705	          0.25903430	          0.08089014	          0.05036011	          0.05006912	          0.05005983	          0.05017393	          0.30118225	          0.56620938	          0.05417907	          0.05001036	          0.05000114	          0.17185284	          0.11138643	          0.15205258	          0.13549688	          0.23753074	          0.32697005	          0.22191896	          0.21288595	          0.22053209	          0.29429618	          0.05000017	          0.05339317	          0.18665164	          0.05000065	          0.05000021	          0.05000086	          0.06046130	          0.05860825	          0.05330105	
          1.58045580	         -2.89997468	          2.51171764	         -6.02917078	          2.11012706	          0.85448556	          0.00184465	         29.83765906	          4.02192529	         -1.24569946	        -18.15152716	         -2.67377231	          6.41319993	        -15.38888441	        -12.06081694	          6.31221748	         -2.32779809	         -6.22174291	         11.62172358	         -0.16775350	         25.04185800	         -1.73922664	         -1.34449272	          1.96816124	        -12.12065250	        -13.52197366	          6.94797813	          8.81828677	        -13.48065606	         17.87131651	         13.41102468	         36.98512152	         86.51662706	         86.51662706	          0.33350193	          0.30226580	          0.39970313	          0.21332776	          0.21124941	          0.17652128	          0.06646751	          0.10901055	          0.18143037	          0.09436286	          0.05860322	          0.06874490	          0.22270033	          0.16549830	          0.13900437	          0.16798211	          0.05000224	          0.05123663	          0.11784395	          0.23482067	          0.17902686	          0.14669886	          0.05000075	          0.05000086	          0.39553925	          0.10024107	          0.14129292	          0.05000095	          0.13933581	          0.14183124	          0.12250995	          0.05833297	          0.05860701	          0.05360155	          0.05000029	          0.05860785	          0.05009245	          0.62244093	          0.47589936	          0.24414824	          0.65433829	          0.66577437	          0.39041453	          0.08115808	          0.08847084	          0.07289296	          0.28883547	          0.06316732	          0.05000057	          0.34587249	          0.13004558	          0.06870085	          0.05003301	          0.05000125	          0.05000111	          0.05000212	          0.06870836	          0.14416514	          0.13994222	          0.05000891	          0.05001041	          0.05000494	          0.31426857	          0.06901694	          0.05000410	          0.05001057	          0.05000616	          0.05000362	          0.25694609	          0.52369678	          0.05000070	          0.05000413	          0.05000227	          0.14661279	          0.09503665	          0.12972875	          0.12967739	          0.20264313	          0.27894597	          0.18932434	          0.18161833	          0.18814199	          0.25107173	          0.05000045	          0.11682871	          0.18172128	          0.05000130	          0.09629905	          0.05000189	          0.08221184	          0.05000017	          0.05000021	
